<?xml version="1.0" encoding="UTF-8" standalone="no"?>
<!-- Generator: Adobe Illustrator 15.0.2, SVG Export Plug-In . SVG Version: 6.00 Build 0)  -->

<svg
   xmlns:dc="http://purl.org/dc/elements/1.1/"
   xmlns:cc="http://creativecommons.org/ns#"
   xmlns:rdf="http://www.w3.org/1999/02/22-rdf-syntax-ns#"
   xmlns:svg="http://www.w3.org/2000/svg"
   xmlns="http://www.w3.org/2000/svg"
   xmlns:sodipodi="http://sodipodi.sourceforge.net/DTD/sodipodi-0.dtd"
   xmlns:inkscape="http://www.inkscape.org/namespaces/inkscape"
   version="1.1"
   id="Layer_1"
   x="0px"
   y="0px"
   width="512px"
   height="455.105px"
   viewBox="0 0 512 455.105"
   enable-background="new 0 0 512 455.105"
   xml:space="preserve"
   inkscape:version="0.48.4 r9939"
   sodipodi:docname="dropbox.svg"><metadata
     id="metadata3163"><rdf:RDF><cc:Work
         rdf:about=""><dc:format>image/svg+xml</dc:format><dc:type
           rdf:resource="http://purl.org/dc/dcmitype/StillImage" /></cc:Work></rdf:RDF></metadata><defs
     id="defs3161" /><sodipodi:namedview
     pagecolor="#ffffff"
     bordercolor="#666666"
     borderopacity="1"
     objecttolerance="10"
     gridtolerance="10"
     guidetolerance="10"
     inkscape:pageopacity="0"
     inkscape:pageshadow="2"
     inkscape:window-width="3074"
     inkscape:window-height="1752"
     id="namedview3159"
     showgrid="false"
     inkscape:zoom="2.0742466"
     inkscape:cx="311.14129"
     inkscape:cy="207.0846"
     inkscape:window-x="126"
     inkscape:window-y="48"
     inkscape:window-maximized="1"
     inkscape:current-layer="Layer_1" /><g
     id="g3190"
     transform="matrix(1.5964554,0,0,1.5964554,-195.59671,-130.51528)"><g
       style="fill:#007de6;fill-opacity:1"
       transform="matrix(10.202206,0,0,-10.202206,137.17782,141.89526)"
       id="g3167"><path
         id="path3169"
         style="fill:#007de6;fill-opacity:1;fill-rule:nonzero;stroke:none"
         d="M 0,0 5.833,-4.671 14.34,0.581 8.437,5.508 0,0 z"
         inkscape:connector-curvature="0" /></g><g
       style="fill:#007de6;fill-opacity:1"
       transform="matrix(10.202206,0,0,-10.202206,137.17782,237.2134)"
       id="g3171"><path
         id="path3173"
         style="fill:#007de6;fill-opacity:1;fill-rule:nonzero;stroke:none"
         d="M 0,0 8.437,-5.508 14.34,-0.581 5.833,4.672 0,0 z"
         inkscape:connector-curvature="0" /></g><g
       style="fill:#007de6;fill-opacity:1"
       transform="matrix(10.202206,0,0,-10.202206,283.47435,243.13884)"
       id="g3175"><path
         id="path3177"
         style="fill:#007de6;fill-opacity:1;fill-rule:nonzero;stroke:none"
         d="M 0,0 5.903,-4.927 14.34,0.581 8.506,5.252 0,0 z"
         inkscape:connector-curvature="0" /></g><g
       style="fill:#007de6;fill-opacity:1"
       transform="matrix(10.202206,0,0,-10.202206,343.69903,85.692291)"
       id="g3179"><path
         id="path3181"
         style="fill:#007de6;fill-opacity:1;fill-rule:nonzero;stroke:none"
         d="M 0,0 -5.903,-4.927 2.604,-10.18 8.437,-5.509 0,0 z"
         inkscape:connector-curvature="0" /></g><g
       style="fill:#007de6;fill-opacity:1"
       transform="matrix(10.202206,0,0,-10.202206,223.24975,304.07662)"
       id="g3183"><path
         id="path3185"
         style="fill:#007de6;fill-opacity:1;fill-rule:nonzero;stroke:none"
         d="m 0,0 -2.534,1.654 0,-1.854 8.454,-5.07 8.454,5.07 0,1.854 L 11.841,0 5.92,4.913 0,0 z"
         inkscape:connector-curvature="0" /></g></g></svg>